<?xml version="1.0" encoding="UTF-8"?>
<svg id="Livello_1" xmlns="http://www.w3.org/2000/svg" version="1.1" viewBox="0 0 2000 2000">
  <!-- Generator: Adobe Illustrator 30.3.0, SVG Export Plug-In . SVG Version: 2.1.3 Build 182)  -->
  <defs>
    <style>
      .st0 {
        fill: #1061ad;
      }

      .st1 {
        fill: #fff;
      }

      .st2 {
        fill: #d83248;
      }
    </style>
  </defs>
  <g>
    <path class="st1" d="M2298.44,511.41h22.78l32.73,26.05v.55l-55.51,21.28v-3.27h-75.01v32.32l-55.51,21.41v-98.33h130.52ZM2353.94,595.29l-36.41,14.18,36.41,14.18-.14,50.6-32.73,32.73h-153.16v-86.33l130.52-50.46,55.37-21.28.14,46.37ZM2223.43,645.75v16.64h75.01v-45.55l-75.01,28.91Z"/>
    <path class="st1" d="M2561.79,511.41v44.6h-130.52v41.32l-55.51,95.47v-181.39h186.03ZM2500.96,586.97h.27l-44.05,75.42h104.61v44.6h-186.03l69.69-120.02h55.51ZM2561.79,586.97v44.46h-75.69l25.78-44.46h49.92Z"/>
    <path class="st1" d="M2773.45,651.07v55.92h-55.37v-.14l-26.19.14-55.51-.14-55.51-64.1h55.51l16.91,19.5h64.78v-11.18l-17.05-19.64-38.46-44.46h55.51l55.37,64.1ZM2638.16,511.41v55.92l16.91,19.64,38.6,44.6-55.51-.14-55.51-64.1v-55.92h55.51ZM2773.45,511.41v75.56h-55.37v-75.56h55.37Z"/>
  </g>
  <g>
    <path class="st0" d="M3073.46,511.41h55.51l49.78,72.01,51.83-72.01h55.51l-76.78,116.06,24.14,34.91h52.64v44.6h-21.82l-.14-.27.14.27h-55.37l-55.1-79.38-49.51-71.6h-52.64v-44.6h21.82ZM3096.24,564.74l10.91,16.37v125.88h-55.51v-142.25h44.6ZM3286.08,653.66h-46.78l-8.73-14.18v-27.82l55.51-83.74v125.74Z"/>
    <path class="st0" d="M3491.88,511.41v44.6h-69.42l-87.69,150.98h-29.6v-44.6l87.69-150.98h99.01ZM3491.88,564.74v142.25h-148.38l25.91-44.6h67.1v-97.65h55.37Z"/>
    <path class="st0" d="M3535.51,511.41h55.51l87.69,150.98h47.6v44.6h-77.19l-87.7-150.98h-47.73v-44.6h21.82ZM3558.29,564.74l10.91,18.55v123.7h-55.51v-142.25h44.6ZM3726.31,511.41v142.25h-44.6l-10.91-18.55v-123.7h55.51Z"/>
    <path class="st0" d="M3932.11,511.41v44.6h-69.42l-87.69,150.98h-29.6v-44.6l87.69-150.98h99.02ZM3932.11,564.74v142.25h-148.38l25.91-44.6h67.1v-97.65h55.37Z"/>
    <path class="st0" d="M4150.18,511.41v45.42l-32.73,32.73h-22.64v-35.73h-85.38v57.55l-55.51-64.24v-3l32.73-32.73h163.52ZM4009.43,622.29v40.1h85.38l37.78,44.6h-178.66v-148.93l55.51,64.24ZM4117.45,605.38l32.73,42.42v59.19h-7.77l-47.6-55.92v-3.27h-24.41l-32.73-39.28v-3.14h79.78Z"/>
    <path class="st0" d="M4358.02,511.41v44.6h-130.52v41.32l-55.51,95.47v-181.39h186.03ZM4297.2,586.97h.27l-44.05,75.42h104.61v44.6h-186.03l69.69-120.02h55.51ZM4358.02,586.97v44.46h-75.69l25.78-44.46h49.92Z"/>
    <path class="st0" d="M4510.36,511.41h22.64l30.14,30.14-31.1,12-6.55,2.59-15.14,5.73v.14-6h-75.01v32.32l-55.51,21.41v-98.33h130.52ZM4565.73,553.55h.14v41.73l-130.52,50.33v61.37h-55.51v-86.33l130.52-50.46.14.14-.14-.14,8.73-3.27,34.51-13.37,12.14-4.77v4.77ZM4532.72,662.39h41.05v44.6h-58.1l-55.51-64.24,41.46-16.23,31.1,35.87Z"/>
  </g>
  <path class="st2" d="M3007.41,710.21l-46.36.04-28.08-31.03-24.5-26.79-13.85,15.05-38.79,42.77-46.36-.02v-45.34s10.44-10.72,10.44-10.72l42.68-43.32-12.58-12.68-40.55-41.29v-45.44s45.67-.02,45.67-.02l37.46,38.5,15.73,16.35,7.29-7.34,46.1-47.5,45.7.02.02,45.45-40.94,41.62-12.24,12.33,29.4,29.79,23.77,24.27v45.31ZM2891.89,593.95l-18.08-34.43,7.55-.27-27.66-32.22h-28.86s.04,25.42.04,25.42l15.4,14.77,15.72,15.17.2-7.81,35.69,19.38ZM2960.98,582.32l31-29.78-.05-25.52-28.79.03-27.59,32.22,7.57.25-18.25,34.51,35.79-19.46.32,7.76ZM2891.18,601.24l16.86,9.13-9.01-16.88c-.64,2.73-.12,5.03-.3,7.45l-7.55.31ZM2918.13,600.95c-.26-2.61.32-4.96-.33-7.5l-8.9,16.79,16.91-9.07-7.69-.22ZM2898.72,620.47c.22,2.52-.35,4.71.33,7.34l8.99-16.65-16.93,9.03,7.61.28ZM2918.18,620.39l7.46-.24-16.86-9.11,8.96,16.71.44-7.36ZM2824.9,694.72l28.9-.02,7.41-8.95,20.09-24.03-7.58-.23,18.25-33.94-35.8,19.46-.15-7.83-23.18,22.25-7.98,7.62.05,25.68ZM2992.01,694.66l-.02-25.65-31.05-29.85-.26,7.8-35.8-19.44,18.3,33.97-7.55.25,18.64,22.28,8.87,10.69,28.87-.04Z"/>
</svg>