<?xml version="1.0" encoding="UTF-8"?>
<svg id="Livello_1" xmlns="http://www.w3.org/2000/svg" version="1.1" viewBox="0 0 2000 2000">
  <!-- Generator: Adobe Illustrator 30.3.0, SVG Export Plug-In . SVG Version: 2.1.3 Build 182)  -->
  <defs>
    <style>
      .st0 {
        fill: #fff;
        font-family: CreateFuture-Regular, 'Create Future';
        font-size: 781.41px;
      }

      .st1 {
        fill: #d83248;
      }
    </style>
  </defs>
  <text class="st0" transform="translate(2157.01 1133.82)"><tspan x="0" y="0">BEY</tspan></text>
  <path class="st1" d="M4950.01,1350.59l-226.62.19-137.27-151.69-119.75-130.94-67.7,73.55-189.6,209.09-226.64-.11-.02-221.65,51.07-52.4,208.62-211.75-61.51-61.98-198.24-201.81.02-222.14,223.24-.1,183.12,188.22,76.88,79.9,35.65-35.9,225.33-232.2,223.41.09.1,222.17-200.11,203.44-59.83,60.28,143.71,145.62,116.17,118.62-.05,221.51ZM4385.3,782.31l-88.36-168.29,36.92-1.34-135.23-157.52-141.06.04.17,124.23,75.3,72.18,76.84,74.15.96-38.17,174.47,94.72ZM4723.04,725.45l151.52-145.58-.22-124.75-140.74.13-134.84,157.49,36.99,1.2-89.23,168.71,174.97-95.15,1.55,37.93ZM4381.82,817.92l82.42,44.61-44.05-82.51c-3.11,13.35-.57,24.57-1.45,36.41l-36.92,1.49ZM4513.58,816.51c-1.25-12.76,1.56-24.26-1.6-36.67l-43.5,82.07,82.68-44.32-37.58-1.08ZM4418.69,911.91c1.06,12.31-1.7,23,1.62,35.87l43.95-81.38-82.77,44.12,37.2,1.39ZM4513.82,911.56l36.45-1.19-82.42-44.51,43.8,81.68,2.17-35.98ZM4057.84,1274.86l141.25-.12,36.22-43.73,98.23-117.48-37.07-1.14,89.22-165.92-175.01,95.12-.73-38.29-113.33,108.79-39.02,37.26.26,125.51ZM4874.69,1274.59l-.08-125.4-151.77-145.89-1.27,38.11-175.01-95.02,89.44,166.03-36.91,1.21,91.11,108.93,43.37,52.24,141.13-.21Z"/>
</svg>