<?xml version="1.0" encoding="UTF-8"?>
<svg id="Livello_1" data-name="Livello 1" xmlns="http://www.w3.org/2000/svg" version="1.1" viewBox="0 0 2000 495.6">
  <defs>
    <style>
      .cls-1 {
        fill: #d83248;
      }

      .cls-1, .cls-2 {
        stroke-width: 0px;
      }

      .cls-3 {
        isolation: isolate;
      }

      .cls-2 {
        fill: #fff;
      }
    </style>
  </defs>
  <g class="cls-3">
    <g class="cls-3">
      <path class="cls-2" d="M405.4,100.5h45l64.6,39.8v.8l-109.6,32.5v-5h-148.1v49.4l-109.6,32.8V100.5h257.8ZM515.1,228.8l-71.9,21.7,71.9,21.7-.3,77.4-64.6,50.1H147.7v-132.1l257.8-77.2,109.4-32.5.3,70.9ZM257.3,306v25.5h148.1v-69.7l-148.1,44.2Z"/>
      <path class="cls-2" d="M925.5,100.5v68.2h-257.8v63.2l-109.6,146V100.5h367.4ZM805.4,216.1h.5l-87,115.4h206.6v68.2h-367.4l137.6-183.6h109.6ZM925.5,216.1v68h-149.5l50.9-68h98.6Z"/>
      <path class="cls-2" d="M1343.5,314.1v85.5h-109.4v-.2l-51.7.2-109.6-.2-109.6-98.1h109.6l33.4,29.8h127.9v-17.1l-33.7-30-76-68h109.6l109.4,98.1ZM1076.4,100.5v85.5l33.4,30,76.2,68.2-109.6-.2-109.6-98.1v-85.5h109.6ZM1343.5,100.5v115.6h-109.4v-115.6h109.4Z"/>
    </g>
  </g>
  <path class="cls-1" d="M1852.3,454h-96.2c0,0-58.3-64.3-58.3-64.3l-50.8-55.6-28.7,31.2-80.5,88.7h-96.2s0-94.1,0-94.1l21.7-22.2,88.5-89.9-26.1-26.3-84.1-85.6V41.6s94.8,0,94.8,0l77.7,79.9,32.6,33.9,15.1-15.2,95.6-98.5h94.8s0,94.3,0,94.3l-84.9,86.3-25.4,25.6,61,61.8,49.3,50.3v94s0,0,0,0ZM1612.6,212.8l-37.5-71.4,15.7-.6-57.4-66.9h-59.9s0,52.7,0,52.7l32,30.6,32.6,31.5.4-16.2,74,40.2h0ZM1756,188.7l64.3-61.8v-52.9c0,0-59.8,0-59.8,0l-57.2,66.8,15.7.5-37.9,71.6,74.3-40.4.7,16.1h0ZM1611.1,227.9l35,18.9-18.7-35c-1.3,5.7-.2,10.4-.6,15.5l-15.7.6h0ZM1667.1,227.3c-.5-5.4.7-10.3-.7-15.6l-18.5,34.8,35.1-18.8-15.9-.5ZM1626.8,267.8c.4,5.2-.7,9.8.7,15.2l18.7-34.5-35.1,18.7,15.8.6h0ZM1667.2,267.7l15.5-.5-35-18.9,18.6,34.7.9-15.3ZM1473.6,421.8h59.9c0,0,15.4-18.6,15.4-18.6l41.7-49.9-15.7-.5,37.9-70.4-74.3,40.4-.3-16.3-48.1,46.2-16.6,15.8v53.3c.1,0,.1,0,.1,0ZM1820.3,421.7v-53.2s-64.4-61.9-64.4-61.9l-.5,16.2-74.3-40.3,38,70.5-15.7.5,38.7,46.2,18.4,22.2h59.9c0,0,0,0,0,0Z"/>
</svg>